HIERARCHY
ROOT Hips
{
     OFFSET 18.20700 97.20700 -45.17130
     CHANNELS 6 Xposition Yposition Zposition Zrotation Xrotation Yrotation
     JOINT Spine
     {
          OFFSET 0.00000 11.89050 0.00000
          CHANNELS 3 Zrotation Xrotation Yrotation
          JOINT Spine1
          {
               OFFSET 0.00000 25.65740 0.12766
               CHANNELS 3 Zrotation Xrotation Yrotation
               JOINT HEad
               {
                    OFFSET 0.00000 8.73416 0.01134
                    CHANNELS 3 Zrotation Xrotation Yrotation
                    End Site
                    {
                         OFFSET -0.29000 12.77420 2.51395
                    }
               }
               JOINT LeftShoulder1
               {
                    OFFSET 8.99000 -0.36225 -0.22000
                    CHANNELS 3 Zrotation Xrotation Yrotation
                    JOINT LeftArm
                    {
                         OFFSET 10.28270 -0.00338 0.32212
                         CHANNELS 3 Zrotation Xrotation Yrotation
                         JOINT LeftForeArm
                         {
                              OFFSET 32.76690 0.09914 -1.42434
                              CHANNELS 3 Zrotation Xrotation Yrotation
                              JOINT LeftHand
                              {
                                   OFFSET 27.56430 0.08536 1.02216
                                   CHANNELS 3 Zrotation Xrotation Yrotation
                                   End Site
                                   {
                                        OFFSET 16.74430 -0.60000 1.50291
                                   }
                              }
                         }
                    }
               }
               JOINT RightShoulder
               {
                    OFFSET -8.99000 -0.36225 -0.22000
                    CHANNELS 3 Zrotation Xrotation Yrotation
                    JOINT RightArm
                    {
                         OFFSET -10.28270 -0.00338 0.32212
                         CHANNELS 3 Zrotation Xrotation Yrotation
                         JOINT RightForeArm
                         {
                              OFFSET -32.89710 0.09914 -1.42434
                              CHANNELS 3 Zrotation Xrotation Yrotation
                              JOINT RightHand
                              {
                                   OFFSET -27.49210 0.08536 1.02216
                                   CHANNELS 3 Zrotation Xrotation Yrotation
                                   End Site
                                   {
                                        OFFSET -16.63120 -0.60000 1.50291
                                   }
                              }
                         }
                    }
               }
          }
     }
     JOINT LeftUpLeg
     {
          OFFSET 8.94580 -8.66707 0.10165
          CHANNELS 3 Zrotation Xrotation Yrotation
          JOINT LeftLeg
          {
               OFFSET 0.00000 -44.42270 1.37270
               CHANNELS 3 Zrotation Xrotation Yrotation
               JOINT LeftFoot
               {
                    OFFSET -0.25355 -42.09240 -1.46059
                    CHANNELS 3 Zrotation Xrotation Yrotation
                    JOINT LeftToes
                    {
                         OFFSET -0.04000 -4.41509 8.49910
                         CHANNELS 3 Zrotation Xrotation Yrotation
                         End Site
                         {
                              OFFSET 0.08000 -0.04745 9.77979
                         }
                    }
               }
          }
     }
     JOINT RightUpLeg
     {
          OFFSET -8.94580 -8.66707 0.10165
          CHANNELS 3 Zrotation Xrotation Yrotation
          JOINT RightLeg
          {
               OFFSET 0.00000 -44.42270 1.37270
               CHANNELS 3 Zrotation Xrotation Yrotation
               JOINT RightFoot
               {
                    OFFSET 0.25355 -42.09240 -1.46059
                    CHANNELS 3 Zrotation Xrotation Yrotation
                    JOINT RightToes
                    {
                         OFFSET 0.04000 -4.41509 8.49910
                         CHANNELS 3 Zrotation Xrotation Yrotation
                         End Site
                         {
                              OFFSET -0.08000 -0.13745 9.77979
                         }
                    }
               }
          }
     }
}
MOTION
Frames: 19
Frame Time: 0.01667
18.20700 97.20700 -45.17130 -7.12516 -10.00570 -27.30990 5.00957 6.63814 0.54517 2.94421 13.92790 1.58607 -7.98191 2.18009 8.07500 0.00000 0.00000 0.00000 -93.64770 -34.68260 -61.95900 14.43670 34.87290 -101.75500 26.52450 11.87270 13.08490 11.57840 0.97258 3.92755 73.89490 -8.02560 77.10360 -0.56775 28.32140 86.50150 4.30666 10.49050 9.24521 20.59030 -13.43120 -0.72138 -13.60070 18.13880 33.02680 -3.06112 1.51005 0.22030 6.33431 8.01311 4.14617 -9.90010 0.14397 -2.36399 4.03178 31.95110 -5.22978 14.68740 -28.95610 2.55365 9.76624 29.65730 -19.52630 
18.33870 96.89650 -44.57510 -7.53710 -10.13250 -27.41010 5.11297 6.77091 0.50778 3.16897 14.22150 1.51255 -8.02474 1.78400 8.21538 0.00000 0.00000 0.00000 -94.29540 -34.89920 -61.62920 15.13040 35.16640 -102.92700 25.92320 12.04060 14.06280 11.62880 0.95861 3.81452 73.28060 -7.56396 77.62820 -0.99336 27.76240 85.92520 4.55340 10.51820 9.21802 21.16930 -14.07130 -0.62919 -13.69140 18.67030 33.80120 -2.74770 1.92813 0.20266 6.96052 9.06380 3.45073 -9.95599 0.41862 -2.37501 4.05910 32.59020 -5.05747 14.87200 -28.83740 2.57395 8.99892 28.39590 -18.25320 
18.55220 96.64310 -43.86360 -7.83407 -10.15580 -27.81390 5.18171 6.86329 0.47568 3.38566 14.41870 1.43944 -8.24519 1.49719 8.61351 0.00000 0.00000 0.00000 -95.66810 -36.11620 -61.21270 15.95590 36.06550 -105.40100 25.02950 12.18210 15.09780 11.47870 0.93287 3.68877 72.99480 -6.97386 78.03070 -1.40016 27.41830 85.61610 4.83460 10.54350 9.06247 21.72760 -14.75280 0.07867 -13.48030 19.66170 33.74330 -2.50239 2.47281 0.19068 6.96144 9.24579 2.44965 -10.19300 0.60948 -2.31825 4.03948 33.02180 -4.61539 15.09380 -28.75300 2.60586 8.45398 27.50470 -17.17870 
18.86020 96.46820 -43.02290 -7.96350 -10.01040 -28.69460 5.16766 6.90572 0.49661 3.50931 14.49520 1.45727 -8.64664 1.31729 9.30728 0.00000 0.00000 0.00000 -97.48750 -38.29720 -60.74370 16.53580 37.40330 -108.92100 23.97920 12.24540 15.90780 11.21710 0.90281 3.56759 72.85920 -6.24453 78.30790 -1.76675 27.24930 85.50670 5.08556 10.56230 8.85990 22.33030 -15.31870 1.02101 -13.08190 20.65910 33.09310 -2.40627 3.03592 0.19054 6.82338 9.28073 1.15714 -10.66050 0.59064 -2.13947 3.93581 33.22690 -3.76948 15.38560 -28.76790 2.66505 8.24477 27.28640 -16.40360 
19.27050 96.38910 -42.06100 -7.90264 -9.67197 -30.20110 5.00410 6.90541 0.60805 3.47995 14.45530 1.63397 -9.20974 1.14699 10.32020 0.00000 0.00000 0.00000 -96.00840 -38.97690 -58.55630 16.17350 35.59430 -111.51900 22.62900 12.23520 16.58360 10.94410 0.87848 3.48703 72.68710 -5.36588 78.46950 -2.11618 27.20350 85.52720 5.27440 10.57560 8.70345 23.04020 -15.62520 1.78884 -12.67680 21.34040 32.33210 -2.42879 3.54692 0.20032 6.88374 9.60161 -0.22535 -11.35220 0.27016 -1.83680 3.64889 33.16440 -2.39684 15.71800 -28.78360 2.73246 8.31669 27.68610 -15.85280 
19.78510 96.40720 -41.00000 -7.65794 -9.15297 -32.41800 4.63868 6.88376 0.81649 3.27773 14.33440 1.97804 -9.88712 0.84184 11.68940 0.00000 0.00000 0.00000 -93.74030 -39.86670 -56.05130 15.26290 33.35360 -114.14900 21.38550 12.09500 16.55640 10.68580 0.86541 3.48034 72.36920 -4.28882 78.56890 -2.45590 27.21470 85.59510 5.39900 10.58620 8.63912 23.89270 -15.58550 2.13862 -12.40590 21.62600 31.96040 -2.43152 3.95271 0.20670 7.27874 10.31610 -1.38616 -12.20830 -0.41256 -1.46511 3.07570 32.80220 -0.42081 16.01140 -28.60320 2.76351 8.49333 28.33440 -15.37560 
20.39860 96.50230 -39.86630 -7.25285 -8.48604 -35.34020 4.04628 6.85342 1.09796 2.90694 14.16160 2.44402 -10.58990 0.23866 13.48660 0.00000 0.00000 0.00000 -90.63540 -41.01790 -53.48780 14.13010 30.72120 -116.56800 20.31590 11.82230 15.63810 10.41930 0.86295 3.55445 71.85580 -2.95961 78.67280 -2.74229 27.22330 85.62980 5.44581 10.59260 8.66126 24.90050 -15.18330 2.00130 -12.36540 21.63040 32.37540 -2.27219 4.20781 0.19406 8.04880 11.41620 -2.03869 -13.13780 -1.49262 -1.11254 2.17226 32.14640 2.15097 16.27160 -28.06960 2.73453 8.60109 28.81870 -14.89780 
21.09750 96.63460 -38.68510 -6.73421 -7.71836 -38.86190 3.24768 6.80634 1.40591 2.39850 13.93890 2.95090 -11.22400 -0.74859 15.76890 0.00000 0.00000 0.00000 -86.84160 -42.67380 -51.21990 13.07340 27.95960 -118.42000 19.45780 11.44930 13.87490 10.10850 0.86709 3.69695 71.14820 -1.37230 78.80750 -2.92002 27.20040 85.60350 5.38430 10.58980 8.73689 26.07120 -14.42930 1.41621 -12.64400 21.50690 33.78380 -1.91198 4.35448 0.15836 9.18708 12.88850 -2.07111 -14.03570 -2.95555 -0.87574 0.98536 31.25330 5.18449 16.65660 -27.16580 2.66982 8.58534 28.95560 -14.49730 
21.86140 96.75020 -37.47660 -6.19085 -6.91215 -42.75650 2.33306 6.74113 1.66695 1.83221 13.69300 3.37094 -11.74540 -2.07200 18.50590 0.00000 0.00000 0.00000 -82.88150 -45.33760 -49.81790 12.29600 25.73930 -119.21000 18.97110 11.07400 11.76400 9.68192 0.87167 3.89379 70.33530 0.42561 79.00070 -2.98158 27.13190 85.56050 5.21456 10.57470 8.81601 27.39560 -13.33240 0.52746 -13.26420 21.34840 36.06770 -1.49477 4.55569 0.11609 10.68290 14.77420 -1.70749 -14.80390 -4.70200 -0.83411 -0.33395 30.25020 8.39351 17.34160 -26.04540 2.61667 8.55228 28.91050 -14.40440 
22.65220 96.75630 -36.27710 -5.72393 -6.16903 -46.64780 1.33199 6.68566 1.80155 1.31045 13.49900 3.53824 -12.13230 -3.57810 21.54380 0.00000 0.00000 0.00000 -79.66430 -49.49790 -50.15120 12.00590 25.02120 -118.33300 19.25350 10.85260 10.27050 9.11735 0.87135 4.12102 69.54570 2.29591 79.27120 -2.95893 27.02490 85.59460 4.98896 10.55050 8.84432 28.78350 -11.99090 -0.38712 -14.07500 21.30090 38.65570 -1.36008 4.99554 0.10429 12.51240 17.09130 -1.40362 -15.41580 -6.64043 -1.00636 -1.56603 29.56420 11.37020 18.30750 -25.04390 2.61462 8.66680 29.00460 -14.86250 
23.44930 96.59400 -35.10780 -5.48939 -5.55086 -50.02150 0.46047 6.66154 1.71537 0.94685 13.41370 3.28913 -12.32210 -5.00972 24.62870 0.00000 0.00000 0.00000 -78.41660 -54.97580 -53.44130 12.41240 26.64270 -115.08700 20.60580 10.92350 10.26930 8.58041 0.87091 4.35342 68.86450 3.96056 79.47920 -2.86375 26.95610 85.81690 4.77915 10.52400 8.79005 30.11180 -10.57200 -0.94769 -14.71930 21.47030 40.55200 -1.81035 5.80427 0.16174 14.45520 19.54070 -1.40302 -15.85620 -8.55593 -1.34507 -2.51797 29.56600 13.63970 19.33280 -24.32810 2.65435 8.98953 29.36650 -15.89930 
24.27830 96.30190 -33.93820 -5.62879 -5.03431 -52.32090 0.05131 6.67153 1.33361 0.87267 13.43180 2.49081 -12.23660 -6.03752 27.47530 0.00000 0.00000 0.00000 -80.69260 -60.48650 -61.29120 13.49670 30.98230 -108.64700 22.66170 11.32030 11.77960 8.35755 0.88613 4.58671 68.35260 5.05011 79.27850 -2.60878 27.07390 86.32790 4.65119 10.50220 8.63266 31.24740 -9.28676 -0.84117 -14.79450 21.79020 40.82340 -2.82000 6.96436 0.30146 15.84260 21.26630 -1.44581 -16.12910 -10.05450 -1.75788 -3.08095 30.17260 14.74230 20.21670 -23.64450 2.66582 9.40350 29.75420 -17.32480 
25.13090 95.89070 -32.78050 -6.12689 -4.64997 -53.07430 0.14777 6.71125 0.63081 1.11959 13.50950 1.07936 -11.85690 -6.41285 29.82220 0.00000 0.00000 0.00000 -76.95100 -61.02810 -66.03890 14.22530 32.30780 -95.56230 23.92470 11.86780 14.07130 8.64288 0.92920 4.81157 68.12800 5.21681 78.28100 -2.00562 27.55470 87.24870 4.66921 10.48840 8.29534 32.04570 -8.49694 -0.01362 -14.15250 22.25980 39.22510 -4.06227 8.20337 0.49574 15.65500 21.05240 -1.02257 -16.35020 -10.98600 -2.14055 -3.25571 31.48910 14.44320 20.87410 -22.74000 2.59250 9.63505 29.60690 -18.93140 
25.97230 95.39490 -31.65510 -6.87128 -4.47341 -52.07250 0.61056 6.76051 -0.34919 1.62286 13.59160 -0.87789 -11.26020 -6.13460 31.46950 0.00000 0.00000 0.00000 -53.85810 -51.40790 -57.57510 12.93980 21.47100 -69.98920 22.91140 11.82750 14.31850 9.42390 0.99748 4.98922 68.38210 4.20645 76.24220 -0.96515 28.57360 88.83140 4.91688 10.48160 7.60800 32.39610 -8.43599 1.29446 -12.99090 22.76110 36.34660 -4.96635 9.19589 0.65731 13.17890 17.91690 0.04717 -16.65260 -11.28500 -2.39306 -3.06832 33.43710 12.75000 21.37860 -21.33240 2.39174 9.36642 28.31580 -20.62280 
26.74010 94.86830 -30.57570 -7.68313 -4.55930 -49.45630 1.19763 6.79251 -1.47120 2.24964 13.63130 -3.13222 -10.60420 -5.47954 32.28650 0.00000 0.00000 0.00000 -32.47470 -38.09440 -54.20850 10.61800 5.79754 -37.11310 19.82220 10.49940 7.95667 10.52790 1.07480 5.06803 68.94720 2.00576 73.15350 0.24239 29.86260 91.51750 5.57644 10.48200 6.37353 32.24640 -9.10739 2.74999 -11.68900 23.18480 33.07750 -5.08887 9.72542 0.69543 8.74859 11.91820 1.29240 -17.11660 -10.96340 -2.37245 -2.43677 35.75370 9.78055 21.83310 -19.30110 2.05177 8.46896 25.68260 -22.53010 
27.36330 94.37970 -29.54220 -8.35601 -4.84406 -45.62850 1.73723 6.78692 -2.53623 2.87434 13.59670 -5.28333 -10.11070 -4.83526 32.15620 0.00000 0.00000 0.00000 -21.31080 -31.42620 -57.92690 7.53246 -5.11495 -9.40602 13.86580 9.19691 -1.83651 11.70280 1.13865 5.01369 68.33100 -0.52841 69.11490 0.91864 29.47570 95.86500 7.08442 10.49100 4.44651 31.62610 -10.37320 4.10514 -10.50870 23.54380 29.89620 -4.44962 9.65413 0.59639 3.77064 4.75373 2.08815 -17.69930 -10.12130 -1.91463 -1.18916 38.07590 5.68691 22.25280 -16.86630 1.61510 7.17540 22.27580 -25.01450 
27.80490 94.01950 -28.53300 -8.71406 -5.17597 -41.04920 2.19396 6.72620 -3.33973 3.42146 13.46570 -6.90191 -10.00070 -4.40373 30.91140 0.00000 0.00000 0.00000 -19.42330 -30.28890 -64.34920 3.85430 -10.71130 3.01027 5.96090 9.34442 -7.87779 12.65010 1.16944 4.84129 67.66160 -3.75708 64.39310 1.20599 28.83020 101.83200 9.32715 10.44580 1.96864 30.56370 -12.06120 5.17711 -9.42154 23.85600 26.67760 -3.50291 9.00443 0.43799 -0.23439 -1.26082 2.49840 -18.26660 -8.88363 -0.97189 0.70302 40.00230 0.77271 22.57950 -14.49760 1.17098 5.98502 19.27240 -28.24600 
28.05620 93.84660 -27.55080 -8.67258 -5.43338 -36.06890 2.61876 6.60411 -3.72644 3.81457 13.24780 -7.65380 -10.24490 -4.04566 28.35110 0.00000 0.00000 0.00000 -21.39090 -28.67160 -69.91900 2.33341 -14.21900 3.79660 1.44182 9.80495 -10.38590 13.12430 1.15989 4.60527 66.96110 -7.33169 59.50470 1.35083 27.95740 108.77000 12.34010 10.29380 -0.83469 29.05490 -14.01860 5.78975 -8.21378 24.04750 23.09820 -2.84729 8.15368 0.32709 -2.66273 -5.11152 2.93165 -18.65720 -7.39684 0.28821 2.94637 41.38130 -4.35918 22.75410 -12.75180 0.83377 5.42082 17.74830 -31.75300 
28.12080 93.85040 -26.64920 -8.24515 -5.60808 -30.89290 3.03723 6.44409 -3.62535 3.91053 13.02120 -7.37776 -10.32480 -3.50447 24.35230 0.00000 0.00000 0.00000 -23.86640 -25.03900 -73.01730 6.49750 -17.06120 1.69479 2.30353 9.66106 -12.87290 13.08260 1.11547 4.34163 66.40510 -10.80870 55.30510 1.70758 27.18380 115.52500 16.02960 9.97661 -3.79674 27.10200 -16.08060 5.81677 -6.76634 23.97550 19.11080 -2.87554 7.60617 0.32064 -3.76160 -7.02463 3.39391 -18.75220 -5.80375 1.51859 5.07508 42.42890 -8.88362 22.81220 -12.13720 0.71403 5.76537 18.02910 -34.68980 
